<svg xmlns="http://www.w3.org/2000/svg" enable-background="new 0 0 512 512" viewBox="0 0 512 512" id="features" width="30px" height="30px"><path fill="#ea4335" d="M153.404,282.931l4.951,28.866c1.76,10.261-9.018,18.081-18.227,13.225l-25.889-13.652
			c-3.661-1.931-8.039-1.932-11.702-0.004l-25.991,13.682c-9.209,4.848-19.978-2.972-18.219-13.229l4.955-28.888
			c0.698-4.072-0.652-8.227-3.61-11.111L38.63,251.309c-7.452-7.264-3.336-19.92,6.963-21.412l29.037-4.205
			c4.089-0.592,7.624-3.158,9.455-6.862l13.032-26.375c4.61-9.329,17.917-9.32,22.515,0.015l12.974,26.346
			c1.828,3.712,5.367,6.285,9.462,6.877l29.026,4.203c10.299,1.491,14.415,14.147,6.963,21.412l-21.042,20.511
			C154.055,274.704,152.705,278.859,153.404,282.931z" class="colordbdbdb svgShape"></path><path fill="#4285f4" d="M153.404 107.374l4.951 28.866c1.76 10.261-9.018 18.081-18.227 13.225l-25.889-13.652c-3.661-1.931-8.039-1.932-11.702-.004l-25.991 13.682c-9.209 4.848-19.978-2.972-18.219-13.229l4.955-28.888c.698-4.072-.652-8.227-3.61-11.111L38.63 75.753c-7.452-7.264-3.336-19.92 6.963-21.412l29.037-4.205c4.089-.592 7.624-3.158 9.455-6.862l13.032-26.375c4.61-9.329 17.917-9.32 22.515.015l12.974 26.346c1.828 3.712 5.367 6.285 9.462 6.877l29.026 4.203c10.299 1.491 14.415 14.147 6.963 21.412l-21.042 20.511C154.055 99.147 152.705 103.302 153.404 107.374zM153.404 458.487l4.951 28.866c1.76 10.261-9.018 18.081-18.227 13.225l-25.889-13.652c-3.661-1.931-8.039-1.932-11.702-.004l-25.991 13.682c-9.209 4.848-19.978-2.972-18.219-13.229l4.955-28.888c.698-4.072-.652-8.227-3.61-11.111L38.63 426.865c-7.452-7.264-3.336-19.92 6.963-21.412l29.037-4.205c4.089-.592 7.624-3.158 9.455-6.862l13.032-26.375c4.61-9.329 17.917-9.32 22.515.015l12.974 26.346c1.828 3.712 5.367 6.285 9.462 6.877l29.026 4.203c10.299 1.491 14.415 14.147 6.963 21.412l-21.042 20.511C154.055 450.26 152.705 454.415 153.404 458.487z" class="color47aacb svgShape"></path><path fill="#fbbc05" d="M157.013 96.275c-2.937 2.858-4.287 7.065-3.572 11.114l4.922 28.815c1.747 10.32-9.05 18.099-18.258 13.257l-25.879-13.654c-3.652-1.905-8.018-1.905-11.669 0l-26.038 13.654c-9.208 4.842-19.925-2.937-18.178-13.178l1.19-7.064 23.894-12.543c3.652-1.905 8.018-1.905 11.669 0l25.878 13.654c9.209 4.843 20.004-2.936 18.258-13.256l-4.922-28.816c-.715-4.128.635-8.256 3.572-11.114l21.036-20.56c1.111-1.111 1.985-2.382 2.54-3.652l9.605 1.429c10.32 1.509 14.448 14.13 6.986 21.354L157.013 96.275zM157.013 447.383c-2.937 2.858-4.287 7.065-3.572 11.114l4.922 28.894c1.747 10.241-9.05 18.02-18.258 13.179l-25.879-13.655c-3.652-1.905-8.018-1.905-11.669 0L76.519 500.57c-9.208 4.921-19.925-2.938-18.178-13.179l1.19-7.064 23.894-12.543c3.652-1.905 8.018-1.905 11.669 0l25.878 13.654c9.209 4.843 20.004-2.936 18.258-13.256l-4.922-28.816c-.715-4.049.635-8.255 3.572-11.114l21.036-20.48c1.191-1.111 2.064-2.381 2.54-3.732l9.605 1.429c10.32 1.509 14.448 14.13 6.986 21.434L157.013 447.383z" class="color90cddf svgShape"></path><path fill="#34a853" d="M172.229,46.49l-29.016-4.202c-1.508-0.225-2.814-1.171-3.488-2.535l-12.973-26.342
			c-7.503-15.24-29.227-15.259-36.749-0.031L76.966,39.761c-0.674,1.357-1.969,2.302-3.477,2.519L44.457,46.49
			c-16.805,2.428-23.532,23.102-11.369,34.947l21.039,20.512c1.089,1.062,1.589,2.589,1.333,4.085L50.5,134.919
			c-2.877,16.81,14.797,29.483,29.745,21.598l25.993-13.683c1.349-0.705,2.95-0.713,4.299,0l25.885,13.652
			c15.083,7.932,32.623-4.877,29.757-21.59l-4.954-28.861c-0.256-1.496,0.24-3.023,1.333-4.085l21.036-20.512
			C195.763,69.594,189.033,48.918,172.229,46.49z M172.512,70.072l-21.036,20.504c-4.833,4.713-7.039,11.489-5.899,18.14
			c0,0,0,0,0.004,0l4.95,28.861c0.654,3.787-3.315,6.648-6.702,4.861l-25.885-13.652c-5.985-3.147-13.128-3.147-19.105,0
			L72.85,142.47c-3.414,1.785-7.342-1.109-6.702-4.868l4.961-28.885c1.136-6.644-1.066-13.427-5.896-18.132L44.171,70.072
			c-2.743-2.685-1.235-7.326,2.562-7.876l29.028-4.202c6.678-0.969,12.45-5.155,15.438-11.202l13.035-26.381
			c1.695-3.424,6.578-3.422,8.275,0.008l12.973,26.35c2.985,6.054,8.756,10.256,15.45,11.225l29.024,4.202
			C173.761,62.748,175.248,67.398,172.512,70.072z" class="color3a3d3f svgShape"></path><path fill="#34a853" d="M120.196 68.087l-19.497 19.497-4.209-4.209c-3.101-3.101-8.124-3.101-11.225 0s-3.101 8.124 0 11.225l9.822 9.822c3.101 3.101 8.124 3.101 11.225 0l25.109-25.109c3.101-3.101 3.101-8.124 0-11.225C128.32 64.987 123.297 64.987 120.196 68.087zM229.099 36.366H477.18c4.384 0 7.938-3.55 7.938-7.938s-3.554-7.938-7.938-7.938H229.099c-4.384 0-7.938 3.55-7.938 7.938S224.715 36.366 229.099 36.366zM477.18 72.498H229.099c-4.384 0-7.938 3.55-7.938 7.938 0 4.388 3.554 7.938 7.938 7.938H477.18c4.384 0 7.938-3.55 7.938-7.938C485.118 76.049 481.564 72.498 477.18 72.498zM229.099 140.384H405.6c4.384 0 7.938-3.551 7.938-7.938s-3.554-7.938-7.938-7.938H229.099c-4.384 0-7.938 3.55-7.938 7.938S224.715 140.384 229.099 140.384zM172.229 222.046l-29.016-4.202c-1.508-.225-2.814-1.171-3.488-2.535l-12.973-26.342c-7.496-15.244-29.229-15.256-36.749-.031l-13.035 26.381c-.674 1.357-1.969 2.302-3.477 2.519l-29.032 4.209c-16.805 2.428-23.532 23.102-11.369 34.947l21.039 20.512c1.089 1.062 1.589 2.589 1.333 4.085L50.5 310.475c-2.882 16.836 14.823 29.469 29.745 21.598l25.993-13.683c1.349-.705 2.95-.713 4.299 0l25.885 13.652c15.083 7.932 32.623-4.877 29.757-21.59l-4.954-28.861c-.256-1.496.24-3.023 1.333-4.085l21.036-20.512C195.763 245.149 189.033 224.474 172.229 222.046zM172.512 245.628l-21.036 20.505c-4.833 4.713-7.039 11.489-5.899 18.14 0 0 0 0 .004 0l4.95 28.861c.651 3.772-3.293 6.649-6.702 4.861l-25.885-13.652c-5.985-3.147-13.128-3.147-19.105 0L72.85 318.025c-3.402 1.779-7.344-1.083-6.702-4.868l4.961-28.885c1.136-6.644-1.066-13.427-5.896-18.132l-21.043-20.512c-2.743-2.685-1.235-7.326 2.562-7.876l29.028-4.202c6.678-.969 12.45-5.155 15.438-11.202l13.035-26.373c1.69-3.426 6.58-3.437 8.275 0l12.973 26.35c2.985 6.054 8.756 10.256 15.45 11.225l29.024 4.202C173.761 238.304 175.248 242.954 172.512 245.628z" class="color3a3d3f svgShape"></path><path fill="#34a853" d="M120.196 243.651l-19.493 19.497-4.209-4.217c-3.101-3.101-8.128-3.101-11.229 0-3.101 3.093-3.101 8.124-.004 11.225l9.822 9.83c3.089 3.089 8.118 3.111 11.229 0l25.109-25.109c3.101-3.101 3.101-8.124 0-11.225C128.32 240.55 123.297 240.55 120.196 243.651zM477.18 196.045H229.099c-4.384 0-7.938 3.55-7.938 7.938 0 4.388 3.554 7.938 7.938 7.938H477.18c4.384 0 7.938-3.55 7.938-7.938C485.118 199.595 481.564 196.045 477.18 196.045zM477.18 248.054H229.099c-4.384 0-7.938 3.55-7.938 7.938 0 4.388 3.554 7.938 7.938 7.938H477.18c4.384 0 7.938-3.55 7.938-7.938C485.118 251.605 481.564 248.054 477.18 248.054zM229.099 315.94H405.6c4.384 0 7.938-3.551 7.938-7.938s-3.554-7.938-7.938-7.938H229.099c-4.384 0-7.938 3.55-7.938 7.938S224.715 315.94 229.099 315.94zM172.229 397.601l-29.016-4.202c-1.512-.225-2.814-1.171-3.488-2.527l-12.973-26.35c-7.496-15.244-29.229-15.256-36.749-.031l-13.035 26.381c-.674 1.357-1.977 2.302-3.473 2.527l-29.036 4.202c-16.805 2.428-23.532 23.102-11.369 34.947l21.039 20.512c1.089 1.062 1.589 2.589 1.333 4.085L50.5 486.03c-2.877 16.81 14.789 29.488 29.745 21.598l25.993-13.683c1.337-.713 2.946-.705 4.299.008l25.888 13.652c15.012 7.924 32.623-4.843 29.757-21.59l-4.954-28.869h-.004c-.256-1.496.24-3.023 1.333-4.085l21.036-20.512C195.763 420.705 189.033 400.029 172.229 397.601zM172.512 421.183l-21.036 20.504c-4.833 4.713-7.039 11.489-5.899 18.14l4.958 28.869c.647 3.801-3.351 6.641-6.706 4.861l-25.885-13.652c-5.989-3.163-13.132-3.155-19.105-.008L72.85 493.581c-3.375 1.765-7.348-1.06-6.702-4.868l4.961-28.885c1.136-6.644-1.066-13.427-5.896-18.132l-21.043-20.512c-2.737-2.68-1.239-7.325 2.558-7.876l29.047-4.202c6.675-.969 12.438-5.163 15.423-11.202l13.035-26.373c1.69-3.426 6.58-3.437 8.275 0l12.977 26.357c2.985 6.054 8.756 10.248 15.446 11.217l29.024 4.202C173.761 413.86 175.248 418.51 172.512 421.183z" class="color3a3d3f svgShape"></path><path fill="#34a853" d="M120.196 419.207l-19.493 19.497-4.209-4.217c-3.101-3.101-8.128-3.101-11.229 0-3.101 3.093-3.101 8.124-.004 11.225l9.822 9.83c3.089 3.089 8.118 3.111 11.229 0l25.109-25.109c3.101-3.101 3.101-8.124 0-11.225C128.32 416.106 123.297 416.106 120.196 419.207zM477.18 371.601H229.099c-4.384 0-7.938 3.55-7.938 7.938 0 4.388 3.554 7.938 7.938 7.938H477.18c4.384 0 7.938-3.55 7.938-7.938C485.118 375.151 481.564 371.601 477.18 371.601zM477.18 423.61H229.099c-4.384 0-7.938 3.551-7.938 7.938s3.554 7.938 7.938 7.938H477.18c4.384 0 7.938-3.551 7.938-7.938S481.564 423.61 477.18 423.61zM405.6 475.619H229.099c-4.384 0-7.938 3.551-7.938 7.938s3.554 7.938 7.938 7.938H405.6c4.384 0 7.938-3.55 7.938-7.938S409.984 475.619 405.6 475.619z" class="color3a3d3f svgShape"></path></svg>