<svg xmlns="http://www.w3.org/2000/svg" viewBox="0 0 48 48" id="Distribution" width="30px" height="30px"><path fill-rule="evenodd" d="m4.14,34.49c-.09.15-.14.33-.14.51v8c0,.55.45,1,1,1h12c.55,0,1-.45,1-1v-8c0-.19-.05-.36-.14-.51l-1.71-2.98c-.18-.31-.51-.5-.87-.5H6.71c-.36,0-.69.19-.87.5l-1.71,2.98h0Zm26,0c-.09.15-.14.33-.14.51v8c0,.55.45,1,1,1h12c.55,0,1-.45,1-1v-8c0-.19-.05-.36-.14-.51l-1.71-2.98c-.18-.31-.51-.5-.87-.5h-8.57c-.36,0-.69.19-.87.5l-1.71,2.98h0Zm-14.14,1.51v6H6v-6h10Zm26,0v6h-10v-6h10Zm-30,5h2c.55,0,1-.45,1-1s-.45-1-1-1h-2c-.55,0-1,.45-1,1s.45,1,1,1h0Zm26,0h2c.55,0,1-.45,1-1s-.45-1-1-1h-2c-.55,0-1,.45-1,1s.45,1,1,1h0Zm-4.71-8l-.57,1h3.28v-1h-2.71Zm4.71,0v1h3.28l-.57-1h-2.71Zm-30.71,0l-.57,1h3.28v-1h-2.71Zm4.71,0v1h3.28l-.57-1h-2.71Zm7.94-4.35c-.14-.38-.51-.65-.94-.65-.55,0-1,.45-1,1v2c0,.55.45,1,1,1h2c.55,0,1-.45,1-1,0-.43-.27-.79-.65-.94l1.36-1.36c.39-.39.39-1.02,0-1.42-.39-.39-1.02-.39-1.42,0l-1.36,1.36h0Zm6.71,1.41c-.38.14-.65.51-.65.94,0,.55.45,1,1,1h2c.55,0,1-.45,1-1v-2c0-.55-.45-1-1-1-.43,0-.79.27-.94.65l-1.36-1.36c-.39-.39-1.02-.39-1.42,0-.39.39-.39,1.02,0,1.42l1.36,1.36h0ZM12.11,10.53c-.07.14-.11.3-.11.47v14c0,.55.45,1,1,1h22c.55,0,1-.45,1-1v-14c0-.17-.04-.33-.11-.47l-2.99-5.98c-.17-.34-.52-.55-.89-.55H16c-.38,0-.73.21-.89.55l-2.99,5.98h0Zm1.89,1.47h20v12H14v-12h0Zm2,11h3c.55,0,1-.45,1-1s-.45-1-1-1h-3c-.55,0-1,.45-1,1s.45,1,1,1h0Zm17-4c0-.55-.45-1-1-1h-5c-.55,0-1,.45-1,1v3c0,.55.45,1,1,1h5c.55,0,1-.45,1-1v-3h0Zm-2,1v1h-3v-1h3Zm-15,0h2c.55,0,1-.45,1-1s-.45-1-1-1h-2c-.55,0-1,.45-1,1s.45,1,1,1h0Zm9-14v4h8.38l-2-4h-6.38Zm-10.38,4h8.38v-4h-6.38l-2,4h0Z" fill="#34a853" class="color000000 svgShape"></path></svg>